<svg xmlns="http://www.w3.org/2000/svg" xmlns:xlink="http://www.w3.org/1999/xlink" width="900" height="600"><g><defs><path d="M 50 54 C 50 51.791 51.791 50 54 50 L 846 50 C 848.209 50 850 51.791 850 54 L 850 546 C 850 548.209 848.209 550 846 550 L 54 550 C 51.791 550 50 548.209 50 546 Z" id="a2715z"></path><filter id="a2717z" x="-10.5%" y="-18.8%" width="121.0%" height="137.6%" filterUnits="objectBoundingBox"><feOffset dx="0" dy="10" in="SourceAlpha" result="a2719z"></feOffset><feGaussianBlur stdDeviation="20" in="a2719z" result="a2720z"></feGaussianBlur><feColorMatrix color-interpolation-filters="sRGB" values="0 0 0 0 0   0 0 0 0 0   0 0 0 0 0  0 0 0 0.1 0" type="matrix" in="a2720z" result="a2721z"></feColorMatrix></filter></defs><g filter="url(#a2717z)"><use fill="black" fill-opacity="1" stroke="black" stroke-opacity="0" stroke-width="0" xlink:href="#a2715z" clip-path="url(#a2716z)"></use></g><use xlink:href="#a2715z" fill="hsl(0, 0%, 100%)" clip-path="url(#a2716z)"></use></g><path d="M 117.425 73.416 L 119.27 73.416 C 119.209 73.642 119.179 73.822 119.149 73.928 C 118.756 75.358 117.939 76.322 116.654 76.819 C 115.838 77.136 114.583 77.286 112.89 77.286 C 110.622 77.286 109.246 76.789 108.777 75.81 C 108.384 74.997 108.52 73.386 109.155 70.991 C 109.79 68.657 110.501 67.06 111.302 66.217 C 112.27 65.193 113.918 64.681 116.231 64.681 C 117.909 64.681 119.043 64.861 119.648 65.208 C 120.57 65.75 120.812 67.015 120.404 68.973 C 120.313 69.395 120.116 70.178 119.829 71.322 L 110.969 71.322 C 110.501 73.114 110.35 74.244 110.516 74.741 C 110.773 75.434 111.695 75.78 113.313 75.78 C 115.218 75.78 116.382 75.509 116.82 74.967 C 117.017 74.711 117.214 74.199 117.425 73.416 Z M 118.363 69.922 C 118.635 68.867 118.771 68.205 118.786 67.919 C 118.846 67.12 118.62 66.608 118.121 66.383 C 117.712 66.202 117.017 66.111 116.004 66.111 C 115.097 66.111 114.447 66.157 114.023 66.262 C 113.283 66.443 112.723 66.834 112.315 67.422 C 111.967 67.934 111.65 68.762 111.347 69.907 L 118.363 69.907 Z M 127.6 59.62 L 122.898 77.12 L 121.099 77.12 L 125.816 59.62 Z M 134.494 64.681 C 136.505 64.681 137.79 64.967 138.319 65.554 C 139.03 66.307 138.985 68.13 138.229 70.991 C 137.82 72.482 137.458 73.581 137.125 74.274 C 136.475 75.584 135.658 76.443 134.661 76.834 C 133.874 77.136 132.695 77.301 131.138 77.301 C 129.082 77.301 127.782 77.015 127.252 76.428 C 126.769 75.901 126.602 75.027 126.738 73.807 C 126.814 73.19 127.026 72.196 127.404 70.84 C 128.144 68.084 129.067 66.322 130.185 65.569 C 131.032 64.982 132.468 64.681 134.494 64.681 Z M 134.086 66.202 C 132.65 66.202 131.682 66.367 131.198 66.699 C 130.533 67.166 129.898 68.551 129.263 70.855 C 128.598 73.355 128.462 74.831 128.885 75.283 C 129.188 75.614 130.065 75.765 131.516 75.765 C 132.952 75.765 133.905 75.599 134.373 75.283 C 135.039 74.816 135.689 73.386 136.339 70.991 C 136.989 68.596 137.095 67.166 136.687 66.714 C 136.384 66.383 135.522 66.202 134.086 66.202 Z M 148.449 64.59 C 148.343 64.59 148.222 64.575 148.116 64.575 C 147.255 64.575 146.453 64.726 145.743 65.027 C 145.229 65.238 144.684 65.675 144.125 66.307 L 144.095 66.262 L 144.654 64.846 L 142.87 64.846 L 139.574 77.105 L 141.358 77.105 L 143.339 69.756 C 143.641 68.627 143.974 67.813 144.322 67.361 C 144.957 66.518 145.939 66.096 147.27 66.096 C 147.557 66.096 147.814 66.127 148.026 66.187 Z" fill="rgb(50, 50, 93)"></path><path d="M 108.434 77.753 L 105.592 77.753 L 101.495 73.22 L 90.76 82.587 L 89.838 82.587 L 100.24 71.578 L 94.918 65.614 L 97.79 65.614 L 101.525 69.877 L 112.138 60.765 L 113.06 60.765 L 102.886 71.563 Z" fill="rgb(62, 207, 142)"></path><path d="M 86.021 68.34 L 84.222 68.34 C 84.494 67.377 84.797 66.684 85.114 66.247 C 85.553 65.645 86.203 65.238 87.065 65.012 C 87.805 64.816 88.818 64.711 90.103 64.711 C 91.298 64.711 92.175 64.786 92.734 64.937 C 93.656 65.208 94.201 65.72 94.352 66.503 C 94.473 67.105 94.367 67.964 94.08 69.063 L 91.887 77.196 L 90.073 77.196 L 90.587 75.87 L 90.557 75.855 C 89.937 76.503 89.211 76.94 88.35 77.151 C 87.79 77.301 86.989 77.377 85.946 77.377 C 84.147 77.377 82.967 77.06 82.423 76.428 C 81.969 75.886 81.909 74.952 82.272 73.642 C 82.695 72.06 83.36 71.006 84.268 70.449 C 85.084 69.952 86.354 69.696 88.077 69.696 C 89.423 69.696 90.436 69.846 91.086 70.133 C 91.404 70.283 91.615 70.554 91.721 70.961 L 91.766 70.946 L 92.175 69.455 C 92.553 68.054 92.613 67.151 92.341 66.744 C 92.054 66.307 91.222 66.081 89.846 66.081 C 88.803 66.081 88.062 66.157 87.639 66.307 C 86.868 66.563 86.369 67.105 86.142 67.949 C 86.112 68.024 86.067 68.16 86.021 68.34 Z M 88.304 71.142 C 87.034 71.142 86.188 71.217 85.764 71.383 C 85.023 71.669 84.509 72.346 84.222 73.401 C 83.935 74.47 84.011 75.178 84.479 75.494 C 84.797 75.735 85.553 75.855 86.747 75.855 C 88.365 75.855 89.529 75.614 90.224 75.148 C 90.648 74.861 90.95 74.349 91.162 73.581 C 91.449 72.527 91.298 71.834 90.708 71.488 C 90.3 71.262 89.499 71.142 88.304 71.142 Z" fill="rgb(50, 50, 93)"></path><path d="M 50 90 L 180 90 L 180 550 L 54 550 C 51.791 550 50 548.209 50 546 Z" fill="rgba(47, 64, 79, 1.00)"></path><path d="M 60.5 70.5 L 71 70.5 M 60.5 67 L 71 67 M 60.5 74 L 71 74" fill="#32325D" stroke="#32325D" stroke-linecap="round" stroke-linejoin="round"></path><path d="M 61 107 C 61 104.791 62.791 103 65 103 L 77 103 C 79.209 103 81 104.791 81 107 L 81 119 C 81 121.209 79.209 123 77 123 L 65 123 C 62.791 123 61 121.209 61 119 Z" fill="rgba(166, 65, 150, 1.00)"></path><path d="M 61 136 C 61 133.791 62.791 132 65 132 L 77 132 C 79.209 132 81 133.791 81 136 L 81 148 C 81 150.209 79.209 152 77 152 L 65 152 C 62.791 152 61 150.209 61 148 Z" fill="rgba(125, 59, 155, 1.00)"></path><path d="M 61 165 C 61 162.791 62.791 161 65 161 L 77 161 C 79.209 161 81 162.791 81 165 L 81 177 C 81 179.209 79.209 181 77 181 L 65 181 C 62.791 181 61 179.209 61 177 Z" fill="rgba(59, 108, 178, 1.00)"></path><path d="M 61 194 C 61 191.791 62.791 190 65 190 L 77 190 C 79.209 190 81 191.791 81 194 L 81 206 C 81 208.209 79.209 210 77 210 L 65 210 C 62.791 210 61 208.209 61 206 Z" fill="rgba(60, 142, 189, 1.00)"></path><path d="M 61 223 C 61 220.791 62.791 219 65 219 L 77 219 C 79.209 219 81 220.791 81 223 L 81 235 C 81 237.209 79.209 239 77 239 L 65 239 C 62.791 239 61 237.209 61 235 Z" fill="rgba(134, 207, 231, 1.00)"></path><path d="M 61 252 C 61 249.791 62.791 248 65 248 L 77 248 C 79.209 248 81 249.791 81 252 L 81 264 C 81 266.209 79.209 268 77 268 L 65 268 C 62.791 268 61 266.209 61 264 Z" fill="rgba(20, 182, 170, 1.00)"></path><path d="M 61 281 C 61 278.791 62.791 277 65 277 L 77 277 C 79.209 277 81 278.791 81 281 L 81 293 C 81 295.209 79.209 297 77 297 L 65 297 C 62.791 297 61 295.209 61 293 Z" fill="rgba(44, 182, 125, 1.00)"></path><path d="M 61 310 C 61 307.791 62.791 306 65 306 L 77 306 C 79.209 306 81 307.791 81 310 L 81 322 C 81 324.209 79.209 326 77 326 L 65 326 C 62.791 326 61 324.209 61 322 Z" fill="rgba(36, 162, 73, 1.00)"></path><path d="M 61 339 C 61 336.791 62.791 335 65 335 L 77 335 C 79.209 335 81 336.791 81 339 L 81 351 C 81 353.209 79.209 355 77 355 L 65 355 C 62.791 355 61 353.209 61 351 Z" fill="rgba(227, 219, 52, 1.00)"></path><path d="M 61 368 C 61 365.791 62.791 364 65 364 L 77 364 C 79.209 364 81 365.791 81 368 L 81 380 C 81 382.209 79.209 384 77 384 L 65 384 C 62.791 384 61 382.209 61 380 Z" fill="rgba(222, 166, 57, 1.00)"></path><path d="M 61 397 C 61 394.791 62.791 393 65 393 L 77 393 C 79.209 393 81 394.791 81 397 L 81 409 C 81 411.209 79.209 413 77 413 L 65 413 C 62.791 413 61 411.209 61 409 Z" fill="rgba(223, 121, 48, 1.00)"></path><path d="M 61 426 C 61 423.791 62.791 422 65 422 L 77 422 C 79.209 422 81 423.791 81 426 L 81 438 C 81 440.209 79.209 442 77 442 L 65 442 C 62.791 442 61 440.209 61 438 Z" fill="rgba(186, 73, 65, 1.00)"></path><path d="M 91 113 C 91 110.239 93.239 108 96 108 L 135 108 C 137.761 108 140 110.239 140 113 L 140 113 C 140 115.761 137.761 118 135 118 L 96 118 C 93.239 118 91 115.761 91 113 Z" fill="rgba(167, 177, 194, 1.00)"></path><path d="M 91 142 C 91 139.239 93.239 137 96 137 L 148 137 C 150.761 137 153 139.239 153 142 L 153 142 C 153 144.761 150.761 147 148 147 L 96 147 C 93.239 147 91 144.761 91 142 Z" fill="rgba(167, 177, 194, 1.00)"></path><path d="M 91 171 C 91 168.239 93.239 166 96 166 L 139 166 C 141.761 166 144 168.239 144 171 L 144 171 C 144 173.761 141.761 176 139 176 L 96 176 C 93.239 176 91 173.761 91 171 Z" fill="rgba(167, 177, 194, 1.00)"></path><path d="M 91 200 C 91 197.239 93.239 195 96 195 L 116 195 C 118.761 195 121 197.239 121 200 L 121 200 C 121 202.761 118.761 205 116 205 L 96 205 C 93.239 205 91 202.761 91 200 Z" fill="rgba(167, 177, 194, 1.00)"></path><path d="M 91 229 C 91 226.239 93.239 224 96 224 L 128 224 C 130.761 224 133 226.239 133 229 L 133 229 C 133 231.761 130.761 234 128 234 L 96 234 C 93.239 234 91 231.761 91 229 Z" fill="rgba(167, 177, 194, 1.00)"></path><path d="M 91 258 C 91 255.239 93.239 253 96 253 L 154 253 C 156.761 253 159 255.239 159 258 L 159 258 C 159 260.761 156.761 263 154 263 L 96 263 C 93.239 263 91 260.761 91 258 Z" fill="rgba(167, 177, 194, 1.00)"></path><path d="M 91 287 C 91 284.239 93.239 282 96 282 L 134 282 C 136.761 282 139 284.239 139 287 L 139 287 C 139 289.761 136.761 292 134 292 L 96 292 C 93.239 292 91 289.761 91 287 Z" fill="rgba(167, 177, 194, 1.00)"></path><path d="M 91 345 C 91 342.239 93.239 340 96 340 L 134 340 C 136.761 340 139 342.239 139 345 L 139 345 C 139 347.761 136.761 350 134 350 L 96 350 C 93.239 350 91 347.761 91 345 Z" fill="rgba(167, 177, 194, 1.00)"></path><path d="M 91 374 C 91 371.239 93.239 369 96 369 L 143 369 C 145.761 369 148 371.239 148 374 L 148 374 C 148 376.761 145.761 379 143 379 L 96 379 C 93.239 379 91 376.761 91 374 Z" fill="rgba(167, 177, 194, 1.00)"></path><path d="M 91 403 C 91 400.239 93.239 398 96 398 L 139 398 C 141.761 398 144 400.239 144 403 L 144 403 C 144 405.761 141.761 408 139 408 L 96 408 C 93.239 408 91 405.761 91 403 Z" fill="rgba(167, 177, 194, 1.00)"></path><path d="M 91 432 C 91 429.239 93.239 427 96 427 L 148 427 C 150.761 427 153 429.239 153 432 L 153 432 C 153 434.761 150.761 437 148 437 L 96 437 C 93.239 437 91 434.761 91 432 Z" fill="rgba(167, 177, 194, 1.00)"></path><path d="M 91 316 C 91 313.239 93.239 311 96 311 L 128 311 C 130.761 311 133 313.239 133 316 L 133 316 C 133 318.761 130.761 321 128 321 L 96 321 C 93.239 321 91 318.761 91 316 Z" fill="rgba(167, 177, 194, 1.00)"></path><path d="M 525 103 L 825 103 L 825 303 L 525 303 Z" fill="hsl(0, 0%, 100%)" stroke="#F6F9FC"></path><path d="M 542 128 C 542 125.239 544.239 123 547 123 L 634 123 C 636.761 123 639 125.239 639 128 L 639 128 C 639 130.761 636.761 133 634 133 L 547 133 C 544.239 133 542 130.761 542 128 Z" fill="#F6F9FC"></path><g transform="translate(204 103)"><path d="M 0 0 L 300 0 L 300 200 L 0 200 Z" fill="hsl(0, 0%, 100%)" stroke="#F6F9FC"></path><path d="M 17 25 C 17 22.239 19.239 20 22 20 L 90 20 C 92.761 20 95 22.239 95 25 L 95 25 C 95 27.761 92.761 30 90 30 L 22 30 C 19.239 30 17 27.761 17 25 Z" fill="#F6F9FC"></path><path d="M 17 59 C 17 57.343 18.343 56 20 56 L 32 56 C 33.657 56 35 57.343 35 59 L 35 59 C 35 60.657 33.657 62 32 62 L 20 62 C 18.343 62 17 60.657 17 59 Z" fill="#F6F9FC"></path><path d="M 17 115 C 17 113.343 18.343 112 20 112 L 32 112 C 33.657 112 35 113.343 35 115 L 35 115 C 35 116.657 33.657 118 32 118 L 20 118 C 18.343 118 17 116.657 17 115 Z" fill="#F6F9FC"></path><path d="M 17 170 C 17 168.343 18.343 167 20 167 L 32 167 C 33.657 167 35 168.343 35 170 L 35 170 C 35 171.657 33.657 173 32 173 L 20 173 C 18.343 173 17 171.657 17 170 Z" fill="#F6F9FC"></path><path d="M 45 54 L 46 54 L 46 174 L 45 174 Z" fill="rgba(246, 249, 252, 1.00)"></path><path d="M 60 90 L 120 90 L 120 172 L 60 172 Z" fill="rgba(181, 161, 223, 1.00)"></path><path d="M 139 54 L 199 54 L 199 172 L 139 172 Z" fill="rgba(244, 155, 118, 1.00)"></path><path d="M 217 162 L 277 162 L 277 172 L 217 172 Z" fill="rgba(105, 213, 248, 1.00)"></path></g><path d="M 674.5 157 C 707.361 157 734 183.639 734 216.5 C 734 249.361 707.361 276 674.5 276 C 641.639 276 615 249.361 615 216.5 C 615 183.639 641.639 157 674.5 157 Z" fill="rgba(105, 213, 248, 1.00)"></path><path d="M 674.5 157 C 674.5 187.244 674.5 216.5 674.5 216.5 C 674.5 216.5 628.948 216.5 615 216.5 C 615 183.639 641.639 157 674.5 157 Z" fill="rgba(34, 122, 183, 1.00)"></path><path d="M 674.5 186.75 C 690.93 186.75 704.25 200.07 704.25 216.5 C 704.25 232.93 690.93 246.25 674.5 246.25 C 658.07 246.25 644.75 232.93 644.75 216.5 C 644.75 200.07 658.07 186.75 674.5 186.75 Z" fill="hsl(0, 0%, 100%)"></path><path d="M 204 327 L 504 327 L 504 527 L 204 527 Z" fill="hsl(0, 0%, 100%)" stroke="#F6F9FC"></path><path d="M 221 369 C 221 366.239 223.239 364 226 364 L 392 364 C 394.761 364 397 366.239 397 369 L 397 369 C 397 371.761 394.761 374 392 374 L 226 374 C 223.239 374 221 371.761 221 369 Z" fill="#F6F9FC"></path><path d="M 417 369 C 417 366.239 419.239 364 422 364 L 480 364 C 482.761 364 485 366.239 485 369 L 485 369 C 485 371.761 482.761 374 480 374 L 422 374 C 419.239 374 417 371.761 417 369 Z" fill="#F6F9FC"></path><path d="M 221 388 C 221 385.239 223.239 383 226 383 L 392 383 C 394.761 383 397 385.239 397 388 L 397 388 C 397 390.761 394.761 393 392 393 L 226 393 C 223.239 393 221 390.761 221 388 Z" fill="#F6F9FC"></path><path d="M 417 388 C 417 385.239 419.239 383 422 383 L 480 383 C 482.761 383 485 385.239 485 388 L 485 388 C 485 390.761 482.761 393 480 393 L 422 393 C 419.239 393 417 390.761 417 388 Z" fill="#F6F9FC"></path><path d="M 221 408 C 221 405.239 223.239 403 226 403 L 392 403 C 394.761 403 397 405.239 397 408 L 397 408 C 397 410.761 394.761 413 392 413 L 226 413 C 223.239 413 221 410.761 221 408 Z" fill="#F6F9FC"></path><path d="M 417 408 C 417 405.239 419.239 403 422 403 L 480 403 C 482.761 403 485 405.239 485 408 L 485 408 C 485 410.761 482.761 413 480 413 L 422 413 C 419.239 413 417 410.761 417 408 Z" fill="#F6F9FC"></path><path d="M 221 442 C 221 439.239 223.239 437 226 437 L 392 437 C 394.761 437 397 439.239 397 442 L 397 442 C 397 444.761 394.761 447 392 447 L 226 447 C 223.239 447 221 444.761 221 442 Z" fill="#F6F9FC"></path><path d="M 417 442 C 417 439.239 419.239 437 422 437 L 480 437 C 482.761 437 485 439.239 485 442 L 485 442 C 485 444.761 482.761 447 480 447 L 422 447 C 419.239 447 417 444.761 417 442 Z" fill="#F6F9FC"></path><path d="M 221 463 C 221 460.239 223.239 458 226 458 L 392 458 C 394.761 458 397 460.239 397 463 L 397 463 C 397 465.761 394.761 468 392 468 L 226 468 C 223.239 468 221 465.761 221 463 Z" fill="#F6F9FC"></path><path d="M 417 463 C 417 460.239 419.239 458 422 458 L 480 458 C 482.761 458 485 460.239 485 463 L 485 463 C 485 465.761 482.761 468 480 468 L 422 468 C 419.239 468 417 465.761 417 463 Z" fill="#F6F9FC"></path><path d="M 221 483 C 221 480.239 223.239 478 226 478 L 392 478 C 394.761 478 397 480.239 397 483 L 397 483 C 397 485.761 394.761 488 392 488 L 226 488 C 223.239 488 221 485.761 221 483 Z" fill="#F6F9FC"></path><path d="M 417 483 C 417 480.239 419.239 478 422 478 L 480 478 C 482.761 478 485 480.239 485 483 L 485 483 C 485 485.761 482.761 488 480 488 L 422 488 C 419.239 488 417 485.761 417 483 Z" fill="#F6F9FC"></path><g transform="translate(525 327)"><path d="M 0 0 L 300 0 L 300 200 L 0 200 Z" fill="hsl(0, 0%, 100%)" stroke="#F6F9FC"></path><path d="M 17 25 C 17 22.239 19.239 20 22 20 L 90 20 C 92.761 20 95 22.239 95 25 L 95 25 C 95 27.761 92.761 30 90 30 L 22 30 C 19.239 30 17 27.761 17 25 Z" fill="#F6F9FC"></path><path d="M 23 131 L 57 131 L 57 169 L 23 169 Z" fill="rgba(248, 217, 194, 1.00)"></path><path d="M 66.963 76 L 100.963 76 L 100.963 169 L 66.963 169 Z" fill="rgba(105, 213, 248, 1.00)"></path><path d="M 110.332 110 L 144.332 110 L 144.332 169 L 110.332 169 Z" fill="rgba(62, 207, 142, 1.00)"></path><path d="M 155 156 L 189 156 L 189 169 L 155 169 Z" fill="rgba(210, 242, 210, 1.00)"></path><path d="M 198.963 51 L 232.963 51 L 232.963 169 L 198.963 169 Z" fill="rgba(181, 161, 223, 1.00)"></path><path d="M 242.332 137 L 276.332 137 L 276.332 169 L 242.332 169 Z" fill="rgba(244, 155, 118, 1.00)"></path></g><path d="M 789 61 C 795.627 61 801 66.373 801 73 C 801 79.627 795.627 85 789 85 C 782.373 85 777 79.627 777 73 C 777 66.373 782.373 61 789 61 Z" fill="rgba(246, 249, 252, 1.00)"></path><path d="M 808.5 72 L 813.5 77 L 818.5 72" fill="transparent" stroke-width="2" stroke="#32325D" stroke-linecap="round" stroke-linejoin="round"></path></svg>